<?xml version="1.0" standalone="no"?>
<!DOCTYPE svg PUBLIC "-//W3C//DTD SVG 20010904//EN"
 "http://www.w3.org/TR/2001/REC-SVG-20010904/DTD/svg10.dtd">
<svg version="1.0" xmlns="http://www.w3.org/2000/svg"
 width="300.000000pt" height="300.000000pt" viewBox="0 0 300.000000 300.000000"
 preserveAspectRatio="xMidYMid meet">
<metadata>
Created by potrace 1.11, written by Peter Selinger 2001-2013
</metadata>
<g transform="translate(0.000000,300.000000) scale(0.100000,-0.100000)"
fill="#000000" stroke="none">
<path d="M0 2950 l0 -50 400 0 400 0 0 -350 0 -350 350 0 350 0 0 -700 0 -700
350 0 350 0 0 -350 0 -350 400 0 400 0 0 1450 0 1450 -1500 0 -1500 0 0 -50z
m2910 -350 l0 -300 -350 0 -350 0 0 -350 0 -350 -300 0 -300 0 0 350 0 350
-350 0 -350 0 0 300 0 300 1000 0 1000 0 0 -300z m0 -1400 l0 -1000 -300 0
-300 0 0 350 0 350 -350 0 -350 0 0 300 0 300 350 0 350 0 0 350 0 350 300 0
300 0 0 -1000z"/>
<path d="M100 2160 l0 -650 350 0 350 0 0 -350 0 -350 300 0 300 0 0 650 0
650 -350 0 -350 0 0 350 0 350 -300 0 -300 0 0 -650z"/>
<path d="M100 755 l0 -655 1000 0 1000 0 0 305 0 305 -700 0 -700 0 0 350 0
350 -300 0 -300 0 0 -655z"/>
</g>
</svg>
