<?xml version="1.0" standalone="no"?>
<!DOCTYPE svg PUBLIC "-//W3C//DTD SVG 20010904//EN"
 "http://www.w3.org/TR/2001/REC-SVG-20010904/DTD/svg10.dtd">
<svg version="1.0" xmlns="http://www.w3.org/2000/svg"
 width="712.000000pt" height="712.000000pt" viewBox="0 0 712.000000 712.000000"
 preserveAspectRatio="xMidYMid meet">
<metadata>
Created by potrace 1.14, written by Peter Selinger 2001-2017
</metadata>
<g transform="translate(0.000000,712.000000) scale(0.100000,-0.100000)"
fill="#000000" stroke="none">
<path d="M4159 6740 c-299 -16 -974 -76 -1249 -111 -502 -63 -933 -172 -1285
-324 -287 -124 -606 -312 -815 -481 -127 -103 -293 -267 -383 -379 -228 -283
-343 -538 -404 -890 -21 -125 -24 -505 -5 -640 70 -491 243 -934 536 -1365
254 -375 589 -717 1141 -1165 758 -616 1271 -893 1835 -989 329 -56 747 -15
1147 115 1057 341 1933 1192 2279 2212 123 363 171 693 161 1115 -8 333 -43
573 -128 874 -199 704 -625 1322 -1157 1678 -220 147 -531 265 -822 314 -223
37 -568 51 -851 36z"/>
</g>
</svg>
